<svg width="29" height="29" viewBox="0 0 29 29" fill="none" xmlns="http://www.w3.org/2000/svg">
<path d="M24.4688 17.0978V22.2333C24.4688 23.5557 23.5179 24.6934 22.207 24.8675C19.6856 25.2022 17.1129 25.375 14.5 25.375C11.8871 25.375 9.31449 25.2022 6.79307 24.8675C5.48209 24.6934 4.53125 23.5557 4.53125 22.2333V17.0978M24.4688 17.0978C25.039 16.6117 25.375 15.8762 25.375 15.0908V10.5194C25.375 9.21324 24.4471 8.08474 23.1554 7.89146C21.7956 7.68798 20.4202 7.53172 19.0313 7.42439M24.4688 17.0978C24.2348 17.2973 23.9615 17.4547 23.6557 17.5564C20.7777 18.5131 17.6993 19.0313 14.5 19.0313C11.3007 19.0313 8.22233 18.5131 5.34433 17.5564C5.03856 17.4546 4.7652 17.2972 4.53125 17.0978M4.53125 17.0978C3.96101 16.6117 3.625 15.8762 3.625 15.0908V10.5194C3.625 9.21324 4.55288 8.08474 5.84464 7.89146C7.20448 7.68798 8.57976 7.53172 9.96875 7.42439M19.0313 7.42439V6.34375C19.0313 4.84223 17.814 3.625 16.3125 3.625H12.6875C11.186 3.625 9.96875 4.84223 9.96875 6.34375V7.42439M19.0313 7.42439C17.5361 7.30885 16.0249 7.25 14.5 7.25C12.9751 7.25 11.464 7.30885 9.96875 7.42439M14.5 15.4063H14.5091V15.4153H14.5V15.4063Z" stroke="white" stroke-width="1.8" stroke-linecap="round" stroke-linejoin="round"/>
</svg>
