<svg width="790" height="790" viewBox="0 0 790 790" fill="none" xmlns="http://www.w3.org/2000/svg">
<path d="M201.134 116.92C184.07 151.206 194.814 192.76 173.8 224.36C152.786 255.96 87.3739 250.746 80.1059 324.374C72.8379 398.002 94.7999 470.84 146.466 492.96C198.132 515.08 243.32 522.506 255.96 559.32C268.6 596.134 359.134 607.826 408.746 600.4C458.358 592.974 517.292 528.826 567.852 538.306C618.412 547.786 694.252 514.132 697.412 451.88C700.572 389.628 664.706 352.814 663.758 331.8C662.652 310.786 665.812 304.466 687.932 283.294C710.052 262.122 731.698 237.316 726.958 203.188C719.374 151.68 668.814 104.28 608.774 90.534C547.312 76.472 457.094 146.308 427.548 135.88C398.16 125.294 376.04 77.894 334.96 69.52C293.88 61.146 219.146 81.054 201.134 116.92Z" fill="#073C7C"/>
<path d="M749.236 309.838C748.446 305.73 746.076 302.096 743.074 299.094C737.386 289.298 726.326 283.768 714.318 289.93C701.678 296.408 697.412 315.21 703.416 327.376C709.578 339.542 723.008 344.124 735.016 337.962C744.654 333.222 751.29 320.582 749.236 309.838Z" fill="#073C7C"/>
<path d="M184.386 547.628C213.3 529.774 233.84 567.694 232.26 589.814C230.68 596.134 218.04 597.714 208.56 594.554C194.34 588.234 180.12 575.594 179.646 557.424C179.962 554.106 181.542 550.63 184.386 547.628Z" fill="#073C7C"/>
<path d="M682.56 672.606C682.56 698.518 553.79 719.532 395 719.532C236.21 719.532 107.44 698.518 107.44 672.606C107.44 646.694 236.21 625.68 395 625.68C553.79 625.68 682.56 646.694 682.56 672.606Z" fill="#073C7C"/>
<path d="M134.774 295.934L227.52 154.84L468.786 286.454L310.786 406.534L134.774 295.934Z" fill="url(#paint0_linear_83_178)"/>
<path d="M319.16 407.956C319.318 410.168 317.738 411.906 315.526 411.906H141.568C139.356 411.906 137.46 410.168 137.46 407.956L129.56 290.246C129.402 288.034 130.982 286.296 133.194 286.296H307.152C309.364 286.296 311.26 288.034 311.26 290.246L319.16 407.956Z" fill="#919191"/>
<path d="M311.26 290.088C311.102 287.876 309.206 286.138 307.152 286.138H301.622C303.834 286.138 305.73 287.876 305.73 290.088L313.63 407.798C313.788 410.01 312.208 411.748 309.996 411.748H315.526C317.738 411.748 319.318 410.01 319.16 407.798L311.26 290.088Z" fill="#BABBBA"/>
<path d="M244.584 439.398C244.584 440.03 244.11 440.662 243.32 440.662H217.092C216.46 440.662 215.828 440.188 215.828 439.398V437.66C215.828 437.028 216.302 436.396 217.092 436.396H243.32C243.952 436.396 244.584 436.87 244.584 437.66V439.398Z" fill="#D6D8D6"/>
<path d="M222.938 438.45C222.78 439.714 221.674 440.662 220.568 440.662H183.28C182.016 440.662 181.226 439.714 181.384 438.45L192.918 343.492C193.076 342.228 194.182 341.28 195.288 341.28H232.576C233.84 341.28 234.63 342.228 234.472 343.492L222.938 438.45Z" fill="#BABBBA"/>
<path d="M234.472 343.492C234.63 342.228 233.84 341.28 232.576 341.28H227.836C229.1 341.28 229.89 342.228 229.732 343.492L218.198 438.45C218.04 439.714 220.568 440.662 220.568 440.662C221.832 440.662 222.78 439.714 222.938 438.45L234.472 343.492Z" fill="#D6D8D6"/>
<path d="M505.442 508.286V621.256C505.284 622.994 502.756 624.416 499.596 624.416C496.436 624.416 493.908 622.994 493.75 621.256V508.286H505.442Z" fill="#0087B2"/>
<path d="M424.388 645.272C420.754 645.272 417.752 642.27 417.752 638.636C417.752 623.31 429.918 618.57 440.504 616.042C453.302 613.04 496.278 610.196 498.174 610.038C501.808 609.722 504.968 612.566 505.284 616.2C505.6 619.834 502.756 622.994 499.122 623.31C498.648 623.31 455.514 626.312 443.664 628.998C431.182 632 431.182 635.318 431.182 638.794C431.024 642.428 428.022 645.272 424.388 645.272Z" fill="#0079A0"/>
<path d="M439.082 652.382C439.082 661.546 431.656 668.972 422.492 668.972C413.328 668.972 405.902 661.546 405.902 652.382C405.902 643.218 413.328 635.792 422.492 635.792C431.656 635.792 439.082 643.218 439.082 652.382Z" fill="#778586"/>
<path d="M429.444 652.382C429.444 656.174 426.442 659.176 422.65 659.176C418.858 659.176 415.856 656.174 415.856 652.382C415.856 648.59 418.858 645.588 422.65 645.588C426.284 645.43 429.444 648.59 429.444 652.382Z" fill="#4F475C"/>
<path d="M574.962 645.272C578.596 645.272 581.598 642.27 581.598 638.636C581.598 623.31 569.432 618.57 558.846 616.042C546.048 613.04 503.072 610.196 501.176 610.038C497.542 609.722 494.382 612.566 494.066 616.2C493.75 619.834 496.594 622.994 500.228 623.31C500.702 623.31 543.836 626.312 555.686 628.998C568.168 632 568.168 635.318 568.168 638.794C568.326 642.428 571.328 645.272 574.962 645.272Z" fill="#0079A0"/>
<path d="M560.268 652.382C560.268 661.546 567.694 668.972 576.858 668.972C586.022 668.972 593.448 661.546 593.448 652.382C593.448 643.218 586.022 635.792 576.858 635.792C567.694 635.792 560.268 643.218 560.268 652.382Z" fill="#778586"/>
<path d="M569.906 652.382C569.906 656.174 572.908 659.176 576.7 659.176C580.492 659.176 583.494 656.174 583.494 652.382C583.494 648.59 580.492 645.588 576.7 645.588C572.908 645.43 569.906 648.59 569.906 652.382Z" fill="#4F475C"/>
<path d="M499.596 655.542C495.962 655.542 492.96 652.54 492.96 648.906V616.674C492.96 613.04 495.962 610.038 499.596 610.038C503.23 610.038 506.232 613.04 506.232 616.674V648.906C506.232 652.698 503.23 655.542 499.596 655.542Z" fill="#0079A0"/>
<path d="M507.496 665.654C507.496 667.392 506.074 668.814 504.336 668.814H494.856C493.118 668.814 491.696 667.392 491.696 665.654V640.216C491.696 638.478 493.118 637.056 494.856 637.056H504.336C506.074 637.056 507.496 638.478 507.496 640.216V665.654Z" fill="#657172"/>
<path d="M571.012 486.956C569.274 484.586 430.234 484.586 428.496 486.956C426.126 490.116 417.436 524.086 440.346 524.086C448.088 524.086 551.578 524.086 559.162 524.086C582.072 524.086 573.382 490.116 571.012 486.956Z" fill="#005483"/>
<path d="M498.49 330.536C509.55 327.376 584.6 321.846 590.13 340.016C595.66 358.186 579.86 463.256 576.7 487.746C573.54 512.236 523.77 503.546 498.49 502.756C473.21 501.966 464.52 490.906 470.05 470.366C475.58 449.826 489.01 387.416 490.59 373.986C492.17 360.556 487.43 333.696 498.49 330.536Z" fill="#005483"/>
<path d="M541.15 333.696C541.15 333.696 559.32 334.486 559.32 354.236C559.32 373.986 553.79 401.636 557.74 415.856C561.69 430.076 564.06 470.366 560.9 483.006C557.74 495.646 540.36 510.656 526.14 509.866C511.92 509.076 462.94 525.666 449.51 509.866C436.08 494.066 522.19 327.376 541.15 333.696Z" fill="#004064"/>
<path d="M475.422 218.514C488.062 218.83 514.606 225.466 520.768 256.592C526.93 287.718 519.662 289.93 529.932 300.832C540.36 311.576 551.894 325.796 549.208 342.386C546.522 358.976 498.174 358.502 498.174 358.502C498.174 358.502 435.132 361.188 430.55 353.13C425.968 345.072 435.922 327.85 435.606 312.84C435.29 297.83 429.918 262.122 434.026 250.272C438.292 238.106 462.782 218.198 475.422 218.514Z" fill="#FF9300"/>
<path d="M348.074 587.444C348.074 587.444 343.018 593.606 332.59 605.298C328.798 609.564 319.16 614.62 315.842 618.886C309.364 626.786 306.52 632.474 315.842 635.16C322.952 637.214 331.326 638.32 339.858 635.95C347.126 633.896 354.868 620.466 360.714 617.148C366.402 613.83 368.14 612.566 371.3 609.722C374.46 606.878 370.352 589.656 370.352 589.656L348.074 587.444Z" fill="white"/>
<path d="M348.548 580.176C348.548 580.176 339.068 594.396 335.276 601.664C331.642 608.932 325.954 613.83 333.538 615.884C340.964 617.938 346.494 614.146 354.394 608.616C362.294 602.928 369.404 599.452 370.51 595.186C371.616 590.92 371.3 584.284 370.668 580.334C370.036 576.384 373.196 555.844 373.196 555.844L353.92 551.262L348.548 580.176Z" fill="#FFC5AC"/>
<path d="M424.546 621.414C424.546 621.414 422.334 629.156 417.436 643.85C415.698 649.222 408.904 657.754 407.482 662.968C404.796 672.764 404.322 679.242 413.96 677.978C421.386 677.03 429.444 674.818 436.396 669.288C442.242 664.548 444.138 649.064 448.088 643.85C452.038 638.478 452.986 636.74 454.882 632.79C456.62 628.84 446.034 614.778 446.034 614.778L424.546 621.414Z" fill="white"/>
<path d="M422.176 614.462C422.176 614.462 419.016 631.368 418.542 639.426C418.068 647.484 414.75 654.278 422.492 653.172C430.234 652.066 433.71 646.536 438.766 638.162C443.822 629.788 448.878 623.784 448.246 619.518C447.614 615.094 444.612 609.09 442.558 605.772C440.504 602.454 435.132 582.23 435.132 582.23L415.54 585.548L422.176 614.462Z" fill="#EBB59E"/>
<path d="M455.04 451.09C455.04 451.09 363.558 453.618 355.658 474.948C347.758 496.278 337.646 586.338 340.332 589.34C342.86 592.342 385.994 583.336 386.626 579.702C387.732 573.224 396.738 505.442 400.846 498.49C405.112 491.538 438.924 511.92 458.358 510.34C478.582 508.76 500.702 504.494 506.548 492.328C512.078 481.11 503.704 450.3 503.704 450.3L455.04 451.09Z" fill="#607CC0"/>
<path d="M488.22 455.988C488.22 455.988 470.84 464.836 448.246 473.21C428.97 480.32 404.164 486.166 401.162 496.278C394.526 518.082 412.38 610.354 415.066 613.04C417.91 615.884 457.41 605.14 457.884 601.506C458.674 594.87 450.458 521.242 451.248 516.818C452.196 512.394 478.74 514.764 498.174 511.92C518.24 509.076 534.04 504.336 542.414 493.908C557.108 475.896 543.836 438.608 543.836 438.608L488.22 455.988Z" fill="#566FAC"/>
<path d="M443.664 320.898C437.344 322.952 430.234 331.642 430.708 351.234C431.182 370.668 431.182 388.048 431.182 388.048L412.696 423.44C412.696 423.44 421.86 433.236 426.126 430.55C430.392 427.864 450.3 398.634 451.406 395.316C452.354 391.84 453.302 317.58 443.664 320.898Z" fill="#FFC5AC"/>
<path d="M496.12 310.154C496.12 310.154 529.458 307.942 537.358 322.162C545.258 336.382 543.362 344.756 541.624 360.556C540.36 370.826 537.99 387.732 536.884 397.37C535.778 407.008 537.832 403.69 540.518 415.856C543.204 428.022 548.102 449.352 546.838 452.038C542.098 461.992 505.916 466.89 478.108 464.678C450.3 462.466 446.508 453.618 446.508 453.618C446.508 453.618 450.932 416.014 452.038 408.114C452.67 403.532 450.774 393.42 448.404 384.73C446.666 378.568 443.348 376.514 442.084 367.824C440.82 359.134 444.454 350.918 443.664 343.334C442.558 332.432 442.084 322.162 443.19 320.266C444.296 318.37 447.614 316.79 448.878 316.632C469.892 313.63 496.12 310.154 496.12 310.154Z" fill="#17549E"/>
<path d="M479.214 338.436C486.64 338.436 510.34 323.11 517.608 311.418C506.864 309.364 491.538 307.468 484.27 308.574C476.844 309.68 469.576 310.154 451.564 315.21C453.934 325.48 471.946 338.436 479.214 338.436Z" fill="#FFC5AC"/>
<path d="M545.574 333.222C549.84 348.548 546.364 395.474 536.884 410.8C529.142 423.124 501.65 427.074 492.644 430.866C483.638 434.5 476.844 421.86 482.69 418.226C488.536 414.592 516.976 398.792 516.976 398.792C516.976 398.792 515.712 334.96 522.506 325.48C529.3 316 541.466 317.896 545.574 333.222Z" fill="#FFC5AC"/>
<path d="M465.942 219.778C465.942 219.778 428.654 228.626 431.814 257.224C434.342 281.24 450.458 289.456 450.458 289.456C450.458 289.456 455.356 258.33 461.992 249.008C468.47 239.686 465.942 219.778 465.942 219.778Z" fill="#FF9300"/>
<path d="M489.01 233.84C478.266 223.57 468.786 222.464 455.83 229.416C446.982 233.998 440.346 249.324 440.03 260.384C439.714 269.39 441.136 302.412 466.574 306.046C481.742 308.258 485.692 305.414 492.96 297.672C509.55 280.134 506.232 250.43 489.01 233.84Z" fill="#FFC5AC"/>
<path d="M466.574 288.982L467.522 319.95C467.522 319.95 469.576 337.646 479.056 337.646C488.536 337.646 498.332 314.578 498.332 314.578L487.904 279.66L466.574 288.982Z" fill="#FFC5AC"/>
<path d="M501.334 272.55C504.02 274.604 499.28 290.246 500.86 291.036C503.704 292.3 511.92 279.66 515.08 273.972C520.136 265.282 518.082 246.796 512.71 237.158C507.338 227.52 496.278 220.726 484.27 217.566C471.472 214.248 436.87 230.364 443.032 241.898C449.194 253.432 459.306 255.17 467.048 255.17C474.79 255.17 485.06 257.54 489.168 259.91C493.118 261.964 493.276 266.23 501.334 272.55Z" fill="#FF9300"/>
<path d="M506.864 262.122C505.442 259.752 502.598 258.172 500.228 258.804C498.016 259.436 492.17 266.23 492.17 273.656C492.17 279.344 497.226 281.398 500.228 282.03C502.756 282.504 504.968 280.924 506.39 278.87C509.392 274.446 510.024 267.178 506.864 262.122Z" fill="#FFC5AC"/>
<path d="M473.052 273.024C473.052 275.552 475.106 277.606 477.634 277.606C480.162 277.606 482.216 275.552 482.216 273.024C482.216 270.496 480.162 268.442 477.634 268.442C475.106 268.442 473.052 270.496 473.052 273.024Z" fill="#7C564F"/>
<path d="M446.824 276.184C446.824 278.712 448.878 280.766 451.406 280.766C453.934 280.766 455.988 278.712 455.988 276.184C455.988 273.656 453.934 271.602 451.406 271.602C448.878 271.602 446.824 273.656 446.824 276.184Z" fill="#7C564F"/>
<path d="M461.044 267.178C461.518 267.81 461.992 268.442 462.308 269.232C462.624 269.864 462.94 270.654 463.256 271.444C463.572 272.234 463.73 273.024 463.888 273.814C463.888 274.288 464.046 274.604 464.046 275.236C464.046 275.552 464.046 275.71 463.888 276.026C463.888 276.342 463.73 276.658 463.414 277.132L463.73 276.5C463.572 277.29 463.256 277.764 463.098 278.396L462.466 279.976C462.308 280.45 462.15 281.082 461.992 281.398C461.992 281.556 461.992 281.714 461.834 281.872V282.03L461.992 282.188C461.992 282.188 462.308 282.346 462.466 282.504C462.782 282.662 462.94 282.662 463.256 282.82C463.888 282.978 464.362 283.136 464.994 283.136C466.258 283.294 467.364 283.452 468.628 283.61C467.364 283.926 466.258 284.242 464.994 284.242C464.362 284.242 463.73 284.4 463.098 284.4C462.782 284.4 462.466 284.4 462.15 284.242C461.834 284.242 461.518 284.084 461.044 283.926L460.728 283.768C460.57 283.61 460.412 283.61 460.412 283.452C460.254 283.294 460.096 282.978 459.938 282.82C459.78 282.346 459.622 281.872 459.622 281.556C459.622 280.766 459.78 280.134 459.78 279.344C459.938 278.712 460.096 278.08 460.254 277.448C460.412 276.816 460.728 276.184 460.728 275.868L461.044 275.236C460.886 275.394 460.886 275.394 461.044 275.394C461.044 275.394 461.044 275.236 461.044 275.078C461.044 274.762 461.044 274.446 461.044 274.13C461.044 273.498 461.044 272.708 461.044 271.918C461.044 271.128 461.044 270.338 460.886 269.706C461.044 268.758 461.044 267.968 461.044 267.178Z" fill="#DC8C7A"/>
<path d="M468.628 306.362C479.846 307.626 483.638 304.782 489.642 299.884" stroke="#DC8C7A" stroke-width="0.9723" stroke-miterlimit="10"/>
<path d="M480.32 263.544V263.386C480.794 263.07 481.268 262.754 481.742 262.28C480.32 261.806 479.214 261.648 477.634 261.806C476.054 261.806 474.474 261.806 473.21 262.912C472.262 263.702 473.368 265.124 474.316 264.966C475.58 264.808 476.686 264.492 478.108 264.492C479.214 264.334 480.32 264.65 481.426 264.65C482.848 264.65 482.848 262.28 481.426 262.438H481.584C480.794 261.964 480.004 262.754 480.32 263.544Z" fill="#E37306"/>
<path d="M452.67 266.388V266.23C453.144 265.914 453.618 265.598 454.092 265.124C452.512 264.808 451.248 264.966 449.668 265.124C448.246 265.44 446.35 265.44 445.56 266.862C445.244 267.494 445.718 268.6 446.508 268.6C447.614 268.442 448.72 267.968 449.984 267.652C450.774 267.494 451.564 267.178 452.354 267.178C452.986 267.178 453.46 267.178 454.092 267.178C455.514 267.02 454.882 264.808 453.46 265.124H453.618C452.986 264.808 452.196 265.756 452.67 266.388Z" fill="#E37306"/>
<path d="M467.364 228.152C467.364 228.152 488.536 228.152 497.384 255.012" stroke="#E37306" stroke-width="0.9723" stroke-miterlimit="10"/>
<path d="M448.088 236.842C448.088 236.842 458.358 249.324 467.364 250.746" stroke="#E37306" stroke-width="0.9723" stroke-miterlimit="10"/>
<path d="M458.832 232.102C458.832 232.102 483.48 241.582 485.376 252.01" stroke="#E37306" stroke-width="0.9723" stroke-miterlimit="10"/>
<path d="M478.74 285.664L458.99 290.088C458.99 290.088 467.364 302.412 473.842 298.778C480.32 295.144 478.74 285.664 478.74 285.664Z" fill="white"/>
<path d="M503.862 241.582C503.862 241.582 514.922 249.956 515.396 269.232C515.712 282.662 511.13 291.194 516.186 297.672C521.242 304.15 527.72 309.206 528.036 314.578" stroke="#E37306" stroke-width="0.9723" stroke-miterlimit="10"/>
<path d="M440.504 285.822C440.504 285.822 444.296 290.878 445.56 301.622C446.666 312.366 443.19 314.262 442.874 318.212" stroke="#E37306" stroke-width="0.9723" stroke-miterlimit="10"/>
<path d="M485.376 419.174C485.376 419.174 467.522 407.64 460.57 409.378C453.618 411.116 447.298 409.378 443.19 415.698C439.082 422.018 436.238 428.496 439.714 429.602C441.452 430.234 443.664 428.97 445.244 426.442C447.14 423.44 450.142 421.544 450.142 421.544C450.142 421.544 449.036 424.388 448.246 427.548C447.456 430.55 447.298 433.868 449.036 434.816C450.932 435.764 452.038 433.552 453.302 430.55C454.566 427.864 457.568 424.388 457.568 424.388C457.568 424.388 456.62 427.074 455.988 429.918C455.514 432.762 455.356 435.606 457.094 436.08C458.674 436.396 461.044 433.394 461.676 431.656C462.308 429.602 465.31 428.812 465.31 428.812C465.31 428.812 468.786 436.08 477.002 436.08C485.218 436.08 492.328 432.762 491.38 429.286C490.748 425.81 485.376 419.174 485.376 419.174Z" fill="#FFC5AC"/>
<path d="M454.092 416.804C454.092 416.804 448.72 419.016 448.088 428.496" stroke="#DC8C7A" stroke-width="0.9723" stroke-miterlimit="10"/>
<path d="M465.31 418.542C460.57 417.752 458.358 422.176 457.41 424.072C456.462 425.968 454.566 429.128 455.83 432.288" stroke="#DC8C7A" stroke-width="0.9723" stroke-miterlimit="10"/>
<path d="M182.174 458.516H175.064V691.566H182.174V458.516Z" fill="#AB7A22"/>
<path d="M176.644 458.516H163.214V691.566H176.644V458.516Z" fill="#B89A22"/>
<path d="M274.446 444.77H267.336V663.126H274.446V444.77Z" fill="#AB7A22"/>
<path d="M268.916 444.77H255.486V663.126H268.916V444.77Z" fill="#B89A22"/>
<path d="M548.26 458.516H541.15V691.566H548.26V458.516Z" fill="#AB7A22"/>
<path d="M542.73 458.516H529.3V691.566H542.73V458.516Z" fill="#B89A22"/>
<path d="M640.374 444.77H633.264V663.126H640.374V444.77Z" fill="#AB7A22"/>
<path d="M634.844 444.77H621.414V663.126H634.844V444.77Z" fill="#B89A22"/>
<path d="M674.344 461.36C674.344 464.046 672.29 466.1 669.604 466.1H120.396C117.71 466.1 115.656 464.046 115.656 461.36V445.56C115.656 442.874 117.71 440.82 120.396 440.82H669.762C672.448 440.82 674.502 442.874 674.502 445.56V461.36H674.344Z" fill="white"/>
<path d="M310.786 370.826L378.094 214.88L614.146 300.2L437.502 438.134L310.786 370.826Z" fill="url(#paint1_linear_83_178)"/>
<path d="M490.432 436.554L440.03 431.34C433.71 413.486 418.542 356.29 415.698 353.446C412.38 350.128 299.094 351.708 295.776 356.132C292.458 360.556 320.582 443.822 320.582 443.822C320.582 443.822 486.008 443.032 489.326 443.032C492.802 443.19 490.432 436.554 490.432 436.554Z" fill="#C4C5C4"/>
<path d="M366.402 394.842C367.982 401.32 364.506 407.798 358.66 409.378C352.814 410.8 346.652 406.692 345.072 400.214C343.492 393.736 346.968 387.1 352.814 385.678C358.66 384.256 364.822 388.364 366.402 394.842Z" fill="#D7D8D7"/>
<path d="M409.22 360.556L430.076 432.446" stroke="#A9A4A9" stroke-miterlimit="10"/>
<path d="M323.11 437.976H425.02" stroke="#A9A4A9" stroke-miterlimit="10"/>
<path d="M440.03 431.34C433.71 413.486 418.542 356.29 415.698 353.446C415.382 353.13 414.276 352.972 412.38 352.656C413.328 366.876 437.502 437.976 437.502 437.976C437.502 437.976 461.202 437.818 490.906 437.66C490.748 436.87 490.59 436.238 490.59 436.238L440.03 431.34Z" fill="#D7D8D7"/>
<defs>
<linearGradient id="paint0_linear_83_178" x1="319.426" y1="250.524" x2="248.654" y2="413.569" gradientUnits="userSpaceOnUse">
<stop offset="0.00526316" stop-color="white" stop-opacity="0"/>
<stop offset="1" stop-color="white"/>
</linearGradient>
<linearGradient id="paint1_linear_83_178" x1="478.941" y1="297.047" x2="408.523" y2="459.277" gradientUnits="userSpaceOnUse">
<stop offset="0.00526316" stop-color="white" stop-opacity="0"/>
<stop offset="1" stop-color="white"/>
</linearGradient>
</defs>
</svg>
