<svg width="50" height="29" viewBox="0 0 50 29" fill="none" xmlns="http://www.w3.org/2000/svg">
<path d="M22.952 1.184V8.912C22.952 9.232 22.84 9.552 22.616 9.872C22.424 10.16 22.184 10.368 21.896 10.496L13.592 14.096C13.272 14.256 13.112 14.416 13.112 14.576C13.112 14.736 13.272 14.88 13.592 15.008L21.848 18.56C22.168 18.72 22.424 18.96 22.616 19.28C22.84 19.568 22.952 19.872 22.952 20.192V27.968C22.952 28.288 22.84 28.512 22.616 28.64C22.424 28.768 22.184 28.768 21.896 28.64L1.208 18.896C0.92 18.736 0.68 18.512 0.488 18.224C0.296 17.904 0.2 17.584 0.2 17.264V11.84C0.2 11.52 0.296 11.2 0.488 10.88C0.68 10.56 0.92 10.336 1.208 10.208L21.896 0.511999C22.184 0.351999 22.424 0.351999 22.616 0.511999C22.84 0.639999 22.952 0.863999 22.952 1.184Z" fill="black"/>
<path d="M49.4833 11.84V17.264C49.4833 17.584 49.3713 17.904 49.1473 18.224C48.9553 18.512 48.7153 18.736 48.4273 18.896L27.7873 28.64C27.4993 28.768 27.2433 28.768 27.0193 28.64C26.8273 28.512 26.7313 28.288 26.7313 27.968V20.192C26.7313 19.872 26.8273 19.568 27.0193 19.28C27.2433 18.96 27.4993 18.72 27.7873 18.56L36.0433 15.008C36.3313 14.88 36.4753 14.736 36.4753 14.576C36.4753 14.416 36.3313 14.256 36.0433 14.096L27.7873 10.496C27.4993 10.368 27.2433 10.16 27.0193 9.872C26.8273 9.552 26.7313 9.232 26.7313 8.912V1.184C26.7313 0.863999 26.8273 0.639999 27.0193 0.511999C27.2433 0.351999 27.4993 0.351999 27.7873 0.511999L48.4273 10.208C48.7153 10.336 48.9553 10.56 49.1473 10.88C49.3713 11.2 49.4833 11.52 49.4833 11.84Z" fill="#073C7C"/>
</svg>
